# xmcd CD database file
#
# Track frame offsets:
#	150
#	48105
#	104773
#	148919
#	192624
#	238691
#	278613
#
# Disc length: 3771 seconds
#
# Revision: 0
# Processed by: cddbd v1.5.1PL0 Copyright (c) Steve Scherf et al.
# Submitted via: CDex 1.51
#
DISCID=690eb907
DTITLE=The Anniversary Quartet, Eric Alexander, Joe Farnsworth, Peter Bernstein, Mike Ledonne - Live At The Cellar
DYEAR=2004
DGENRE=Jazz
TTITLE0=After The Love Has Gone
TTITLE1=11 Years
TTITLE2=Lament
TTITLE3=You'll See
TTITLE4=Deliah
TTITLE5=Cherokee
TTITLE6=Outro
EXTD=YEAR: 2004
EXTT0=
EXTT1=
EXTT2=
EXTT3=
EXTT4=
EXTT5=
EXTT6=
PLAYORDER=
